<?xml version="1.0" standalone="no"?><!DOCTYPE svg PUBLIC "-//W3C//DTD SVG 1.1//EN" "http://www.w3.org/Graphics/SVG/1.1/DTD/svg11.dtd"><svg t="1630845753116" class="icon" viewBox="0 0 1024 1024" version="1.1" xmlns="http://www.w3.org/2000/svg" p-id="8786" xmlns:xlink="http://www.w3.org/1999/xlink" width="200" height="200"><defs><style type="text/css"></style></defs><path d="M170.666667 128h256a42.666667 42.666667 0 0 1 42.666666 42.666667v256a42.666667 42.666667 0 0 1-42.666666 42.666666H170.666667a42.666667 42.666667 0 0 1-42.666667-42.666666V170.666667a42.666667 42.666667 0 0 1 42.666667-42.666667z m42.666666 85.333333v170.666667h170.666667V213.333333H213.333333z m-42.666666 341.333334h256a42.666667 42.666667 0 0 1 42.666666 42.666666v256a42.666667 42.666667 0 0 1-42.666666 42.666667H170.666667a42.666667 42.666667 0 0 1-42.666667-42.666667v-256a42.666667 42.666667 0 0 1 42.666667-42.666666z m42.666666 85.333333v170.666667h170.666667v-170.666667H213.333333zM755.498667 87.466667l181.034666 181.034666a42.666667 42.666667 0 0 1 0 60.330667l-181.034666 181.034667a42.666667 42.666667 0 0 1-60.330667 0L514.133333 328.832a42.666667 42.666667 0 0 1 0-60.330667l181.034667-181.034666a42.666667 42.666667 0 0 1 60.330667 0zM725.333333 178.005333L604.672 298.666667 725.333333 419.328 845.994667 298.666667 725.333333 178.005333zM597.333333 554.666667h256a42.666667 42.666667 0 0 1 42.666667 42.666666v256a42.666667 42.666667 0 0 1-42.666667 42.666667h-256a42.666667 42.666667 0 0 1-42.666666-42.666667v-256a42.666667 42.666667 0 0 1 42.666666-42.666666z m42.666667 85.333333v170.666667h170.666667v-170.666667h-170.666667z" p-id="8787" fill="#41a883"></path></svg>